<?xml version="1.0" encoding="UTF-8" standalone="no"?>
<!-- Created with Inkscape (http://www.inkscape.org/) -->

<svg
   xmlns:dc="http://purl.org/dc/elements/1.1/"
   xmlns:cc="http://creativecommons.org/ns#"
   xmlns:rdf="http://www.w3.org/1999/02/22-rdf-syntax-ns#"
   xmlns:svg="http://www.w3.org/2000/svg"
   xmlns="http://www.w3.org/2000/svg"
   xmlns:sodipodi="http://sodipodi.sourceforge.net/DTD/sodipodi-0.dtd"
   xmlns:inkscape="http://www.inkscape.org/namespaces/inkscape"
   width="90"
   height="380"
   viewBox="0 0 23.812501 100.54167"
   version="1.1"
   id="svg8"
   inkscape:version="0.92.2 5c3e80d, 2017-08-06"
   sodipodi:docname="Mult.svg">
  <defs
     id="defs2" />
  <sodipodi:namedview
     id="base"
     pagecolor="#ffffff"
     bordercolor="#666666"
     borderopacity="1.0"
     inkscape:pageopacity="0.0"
     inkscape:pageshadow="2"
     inkscape:zoom="1.979899"
     inkscape:cx="-7.6366883"
     inkscape:cy="341.20886"
     inkscape:document-units="mm"
     inkscape:current-layer="layer1"
     showgrid="false"
     units="px"
     inkscape:snap-bbox="true"
     inkscape:snap-page="true"
     inkscape:bbox-nodes="true"
     inkscape:snap-bbox-edge-midpoints="true"
     inkscape:window-width="1280"
     inkscape:window-height="756"
     inkscape:window-x="0"
     inkscape:window-y="0"
     inkscape:window-maximized="0" />
  <metadata
     id="metadata5">
    <rdf:RDF>
      <cc:Work
         rdf:about="">
        <dc:format>image/svg+xml</dc:format>
        <dc:type
           rdf:resource="http://purl.org/dc/dcmitype/StillImage" />
        <dc:title></dc:title>
      </cc:Work>
    </rdf:RDF>
  </metadata>
  <g
     inkscape:label="Layer 1"
     inkscape:groupmode="layer"
     id="layer1"
     transform="translate(0,-196.45832)">
    <path
       style="opacity:1;vector-effect:none;fill:#f0f0f0;fill-opacity:1;fill-rule:evenodd;stroke:none;stroke-width:0.48607069;stroke-linecap:butt;stroke-linejoin:round;stroke-miterlimit:4;stroke-dasharray:none;stroke-dashoffset:0;stroke-opacity:1;paint-order:normal"
       d="M 0,196.45831 H 23.8125 V 296.99999 H 0 Z"
       id="rect817"
       inkscape:connector-curvature="0" />
    <g
       aria-label="Mult"
       style="font-style:normal;font-weight:normal;font-size:10.58333302px;line-height:1.25;font-family:sans-serif;letter-spacing:0px;word-spacing:0px;fill:#000000;fill-opacity:1;stroke:none;stroke-width:0.26458332"
       id="text3753"
       transform="translate(0,-3.1750001)">
      <path
         d="m 6.8552231,205.07679 h 0.7258817 l 0.918807,2.45015 0.9236301,-2.45015 h 0.7258821 v 3.60047 H 9.6743448 v -3.16156 l -0.9284532,2.46944 H 8.2563435 L 7.3278902,205.5157 v 3.16156 H 6.8552231 Z"
         style="font-style:normal;font-variant:normal;font-weight:normal;font-stretch:normal;font-size:4.93888903px;font-family:sans-serif;-inkscape-font-specification:'sans-serif, Normal';font-variant-ligatures:normal;font-variant-caps:normal;font-variant-numeric:normal;font-feature-settings:normal;text-align:start;writing-mode:lr-tb;text-anchor:start;stroke-width:0.26458332"
         id="path3783"
         inkscape:connector-curvature="0" />
      <path
         d="m 11.053761,207.61135 v -1.63504 h 0.443729 v 1.61816 q 0,0.38344 0.149517,0.57636 0.149517,0.19052 0.448551,0.19052 0.359324,0 0.566718,-0.2291 0.209807,-0.2291 0.209807,-0.6246 v -1.53134 h 0.443728 v 2.70095 h -0.443728 v -0.41479 q -0.161575,0.24598 -0.376205,0.36656 -0.212218,0.11817 -0.494371,0.11817 -0.465432,0 -0.706589,-0.28939 -0.241157,-0.28939 -0.241157,-0.84646 z"
         style="font-style:normal;font-variant:normal;font-weight:normal;font-stretch:normal;font-size:4.93888903px;font-family:sans-serif;-inkscape-font-specification:'sans-serif, Normal';font-variant-ligatures:normal;font-variant-caps:normal;font-variant-numeric:normal;font-feature-settings:normal;text-align:start;writing-mode:lr-tb;text-anchor:start;stroke-width:0.26458332"
         id="path3785"
         inkscape:connector-curvature="0" />
      <path
         d="m 14.234618,204.92486 h 0.443728 v 3.7524 h -0.443728 z"
         style="font-style:normal;font-variant:normal;font-weight:normal;font-stretch:normal;font-size:4.93888903px;font-family:sans-serif;-inkscape-font-specification:'sans-serif, Normal';font-variant-ligatures:normal;font-variant-caps:normal;font-variant-numeric:normal;font-feature-settings:normal;text-align:start;writing-mode:lr-tb;text-anchor:start;stroke-width:0.26458332"
         id="path3787"
         inkscape:connector-curvature="0" />
      <path
         d="m 16.043293,205.20943 v 0.76688 h 0.913984 v 0.34485 h -0.913984 v 1.46623 q 0,0.33039 0.08923,0.42444 0.09164,0.0941 0.36897,0.0941 h 0.455786 v 0.37138 h -0.455786 q -0.513664,0 -0.709001,-0.19051 -0.195337,-0.19293 -0.195337,-0.69936 v -1.46623 h -0.325561 v -0.34485 h 0.325561 v -0.76688 z"
         style="font-style:normal;font-variant:normal;font-weight:normal;font-stretch:normal;font-size:4.93888903px;font-family:sans-serif;-inkscape-font-specification:'sans-serif, Normal';font-variant-ligatures:normal;font-variant-caps:normal;font-variant-numeric:normal;font-feature-settings:normal;text-align:start;writing-mode:lr-tb;text-anchor:start;stroke-width:0.26458332"
         id="path3789"
         inkscape:connector-curvature="0" />
    </g>
    <g
       aria-label="In"
       style="font-style:normal;font-weight:normal;font-size:10.58333302px;line-height:1.25;font-family:sans-serif;letter-spacing:0px;word-spacing:0px;fill:#000000;fill-opacity:1;stroke:none;stroke-width:0.26458332"
       id="text3794"
       transform="translate(0,3.7041668)">
      <path
         d="m 10.334252,207.34309 h 0.347955 v 2.57177 h -0.347955 z"
         style="font-style:normal;font-variant:normal;font-weight:normal;font-stretch:normal;font-size:3.52777767px;font-family:sans-serif;-inkscape-font-specification:'sans-serif, Normal';font-variant-ligatures:normal;font-variant-caps:normal;font-variant-numeric:normal;font-feature-settings:normal;text-align:start;writing-mode:lr-tb;text-anchor:start;stroke-width:0.26458332"
         id="path3800"
         inkscape:connector-curvature="0" />
      <path
         d="m 12.964582,208.75041 v 1.16445 h -0.316948 v -1.15411 q 0,-0.27389 -0.106798,-0.40997 -0.106798,-0.13608 -0.320394,-0.13608 -0.25666,0 -0.404799,0.16364 -0.148139,0.16365 -0.148139,0.44614 v 1.09038 h -0.318671 v -1.92926 h 0.318671 v 0.29973 q 0.113688,-0.17398 0.266995,-0.26011 0.155029,-0.0861 0.356567,-0.0861 0.332452,0 0.502984,0.20671 0.170532,0.20498 0.170532,0.60461 z"
         style="font-style:normal;font-variant:normal;font-weight:normal;font-stretch:normal;font-size:3.52777767px;font-family:sans-serif;-inkscape-font-specification:'sans-serif, Normal';font-variant-ligatures:normal;font-variant-caps:normal;font-variant-numeric:normal;font-feature-settings:normal;text-align:start;writing-mode:lr-tb;text-anchor:start;stroke-width:0.26458332"
         id="path3802"
         inkscape:connector-curvature="0" />
    </g>
    <g
       aria-label="Out"
       style="font-style:normal;font-weight:normal;font-size:10.58333302px;line-height:1.25;font-family:sans-serif;letter-spacing:0px;word-spacing:0px;fill:#000000;fill-opacity:1;stroke:none;stroke-width:0.26458332"
       id="text3798"
       transform="translate(0,6.879167)">
      <path
         d="m 10.03987,217.90719 q -0.3789609,0 -0.6028921,0.2825 -0.2222087,0.2825 -0.2222087,0.76998 0,0.48576 0.2222087,0.76825 0.2239312,0.2825 0.6028921,0.2825 0.37896,0 0.599446,-0.2825 0.222209,-0.28249 0.222209,-0.76825 0,-0.48748 -0.222209,-0.76998 -0.220486,-0.2825 -0.599446,-0.2825 z m 0,-0.2825 q 0.54088,0 0.864719,0.36346 0.323838,0.36174 0.323838,0.97152 0,0.60806 -0.323838,0.97151 -0.323839,0.36174 -0.864719,0.36174 -0.5426029,0 -0.8681645,-0.36174 -0.3238389,-0.36173 -0.3238389,-0.97151 0,-0.60978 0.3238389,-0.97152 0.3255616,-0.36346 0.8681645,-0.36346 z"
         style="font-style:normal;font-variant:normal;font-weight:normal;font-stretch:normal;font-size:3.52777767px;font-family:sans-serif;-inkscape-font-specification:'sans-serif, Normal';font-variant-ligatures:normal;font-variant-caps:normal;font-variant-numeric:normal;font-feature-settings:normal;text-align:start;writing-mode:lr-tb;text-anchor:start;stroke-width:0.26458332"
         id="path3805"
         inkscape:connector-curvature="0" />
      <path
         d="m 11.726244,219.4816 v -1.16789 h 0.316949 v 1.15583 q 0,0.27389 0.106798,0.41169 0.106798,0.13608 0.320393,0.13608 0.25666,0 0.404799,-0.16364 0.149862,-0.16364 0.149862,-0.44614 v -1.09382 h 0.316949 v 1.92926 h -0.316949 v -0.29628 q -0.115411,0.1757 -0.268718,0.26182 -0.151584,0.0844 -0.353122,0.0844 -0.332452,0 -0.504706,-0.20671 -0.172255,-0.2067 -0.172255,-0.60461 z"
         style="font-style:normal;font-variant:normal;font-weight:normal;font-stretch:normal;font-size:3.52777767px;font-family:sans-serif;-inkscape-font-specification:'sans-serif, Normal';font-variant-ligatures:normal;font-variant-caps:normal;font-variant-numeric:normal;font-feature-settings:normal;text-align:start;writing-mode:lr-tb;text-anchor:start;stroke-width:0.26458332"
         id="path3807"
         inkscape:connector-curvature="0" />
      <path
         d="m 14.311788,217.76594 v 0.54777 h 0.652845 v 0.24633 h -0.652845 v 1.04731 q 0,0.23598 0.06373,0.30316 0.06546,0.0672 0.26355,0.0672 h 0.325561 v 0.26528 h -0.325561 q -0.366903,0 -0.506429,-0.13609 -0.139526,-0.1378 -0.139526,-0.49953 v -1.04731 h -0.232544 v -0.24633 h 0.232544 v -0.54777 z"
         style="font-style:normal;font-variant:normal;font-weight:normal;font-stretch:normal;font-size:3.52777767px;font-family:sans-serif;-inkscape-font-specification:'sans-serif, Normal';font-variant-ligatures:normal;font-variant-caps:normal;font-variant-numeric:normal;font-feature-settings:normal;text-align:start;writing-mode:lr-tb;text-anchor:start;stroke-width:0.26458332"
         id="path3809"
         inkscape:connector-curvature="0" />
    </g>
  </g>
</svg>
