<?xml version="1.0" encoding="UTF-8" standalone="no"?>
<!-- Created with Inkscape (http://www.inkscape.org/) -->

<svg
   xmlns:dc="http://purl.org/dc/elements/1.1/"
   xmlns:cc="http://creativecommons.org/ns#"
   xmlns:rdf="http://www.w3.org/1999/02/22-rdf-syntax-ns#"
   xmlns:svg="http://www.w3.org/2000/svg"
   xmlns="http://www.w3.org/2000/svg"
   xmlns:sodipodi="http://sodipodi.sourceforge.net/DTD/sodipodi-0.dtd"
   xmlns:inkscape="http://www.inkscape.org/namespaces/inkscape"
   width="90"
   height="380"
   viewBox="0 0 23.812501 100.54167"
   version="1.1"
   id="svg8"
   inkscape:version="0.92.2 5c3e80d, 2017-08-06"
   sodipodi:docname="Noise.svg">
  <defs
     id="defs2" />
  <sodipodi:namedview
     id="base"
     pagecolor="#ffffff"
     bordercolor="#666666"
     borderopacity="1.0"
     inkscape:pageopacity="0.0"
     inkscape:pageshadow="2"
     inkscape:zoom="1.4492044"
     inkscape:cx="8.3999266"
     inkscape:cy="228.81207"
     inkscape:document-units="mm"
     inkscape:current-layer="layer1"
     showgrid="true"
     units="px"
     inkscape:snap-bbox="true"
     inkscape:snap-page="true"
     inkscape:bbox-nodes="true"
     inkscape:snap-bbox-edge-midpoints="true"
     inkscape:window-width="1280"
     inkscape:window-height="756"
     inkscape:window-x="0"
     inkscape:window-y="0"
     inkscape:window-maximized="0"
     showguides="false">
    <inkscape:grid
       type="xygrid"
       id="grid47" />
  </sodipodi:namedview>
  <metadata
     id="metadata5">
    <rdf:RDF>
      <cc:Work
         rdf:about="">
        <dc:format>image/svg+xml</dc:format>
        <dc:type
           rdf:resource="http://purl.org/dc/dcmitype/StillImage" />
        <dc:title></dc:title>
      </cc:Work>
    </rdf:RDF>
  </metadata>
  <g
     inkscape:label="Layer 1"
     inkscape:groupmode="layer"
     id="layer1"
     transform="translate(0,-196.45832)">
    <path
       style="opacity:1;vector-effect:none;fill:#f0f0f0;fill-opacity:1;fill-rule:evenodd;stroke:none;stroke-width:0.48607069;stroke-linecap:butt;stroke-linejoin:round;stroke-miterlimit:4;stroke-dasharray:none;stroke-dashoffset:0;stroke-opacity:1;paint-order:normal"
       d="M 0,196.45831 H 23.8125 V 296.99999 H 0 Z"
       id="rect817"
       inkscape:connector-curvature="0" />
    <g
       aria-label="Noise / S&amp;H"
       style="font-style:normal;font-weight:normal;font-size:10.58333302px;line-height:1.25;font-family:sans-serif;letter-spacing:0px;word-spacing:0px;fill:#000000;fill-opacity:1;stroke:none;stroke-width:0.26458332"
       id="text51">
      <path
         d="m 1.8207336,202.81965 h 0.4685329 l 1.1403266,2.15147 v -2.15147 h 0.3376194 v 2.57177 h -0.468533 l -1.1403266,-2.15146 v 2.15146 H 1.8207336 Z"
         style="font-size:3.52777767px;stroke-width:0.26458332"
         id="path109" />
      <path
         d="m 5.1934818,203.68437 q -0.254937,0 -0.4030761,0.19982 -0.1481391,0.19809 -0.1481391,0.54432 0,0.34624 0.1464165,0.54605 0.1481391,0.19809 0.4047987,0.19809 0.2532146,0 0.4013537,-0.19981 0.1481391,-0.19982 0.1481391,-0.54433 0,-0.34278 -0.1481391,-0.5426 -0.1481391,-0.20154 -0.4013537,-0.20154 z m 0,-0.26871 q 0.4134115,0 0.6494005,0.26871 0.2359891,0.26872 0.2359891,0.74414 0,0.4737 -0.2359891,0.74414 -0.235989,0.26872 -0.6494005,0.26872 -0.4151339,0 -0.651123,-0.26872 -0.2342665,-0.27044 -0.2342665,-0.74414 0,-0.47542 0.2342665,-0.74414 0.2359891,-0.26871 0.651123,-0.26871 z"
         style="font-size:3.52777767px;stroke-width:0.26458332"
         id="path111" />
      <path
         d="m 6.602526,203.46217 h 0.3169487 v 1.92925 H 6.602526 Z m 0,-0.75104 h 0.3169487 v 0.40136 H 6.602526 Z"
         style="font-size:3.52777767px;stroke-width:0.26458332"
         id="path113" />
      <path
         d="m 8.8108319,203.51901 v 0.29972 q -0.1343587,-0.0689 -0.2790527,-0.10335 -0.144694,-0.0345 -0.2997233,-0.0345 -0.235989,0 -0.3548448,0.0724 -0.1171333,0.0723 -0.1171333,0.21704 0,0.11024 0.084405,0.17397 0.084405,0.062 0.3393419,0.11886 l 0.1085205,0.0241 q 0.3376193,0.0723 0.4788682,0.20498 0.1429715,0.13091 0.1429715,0.3669 0,0.26872 -0.2135959,0.42547 -0.2118734,0.15675 -0.5839437,0.15675 -0.1550293,0 -0.323839,-0.031 -0.1670871,-0.0293 -0.3531223,-0.0896 v -0.32728 q 0.1756999,0.0913 0.3462321,0.1378 0.1705323,0.0448 0.3376194,0.0448 0.2239312,0 0.3445095,-0.0758 0.1205784,-0.0775 0.1205784,-0.21704 0,-0.12919 -0.08785,-0.1981 -0.086127,-0.0689 -0.380683,-0.13263 l -0.1102431,-0.0258 q -0.2945556,-0.062 -0.4254692,-0.18948 -0.1309137,-0.12919 -0.1309137,-0.35312 0,-0.27217 0.1929254,-0.4203 0.1929253,-0.14814 0.5477701,-0.14814 0.1756999,0 0.3307292,0.0258 0.1550293,0.0258 0.2859429,0.0775 z"
         style="font-size:3.52777767px;stroke-width:0.26458332"
         id="path115" />
      <path
         d="m 11.070815,204.34755 v 0.15503 H 9.6135393 q 0.020671,0.32729 0.1963705,0.49954 0.1774224,0.17053 0.4926482,0.17053 0.18259,0 0.353123,-0.0448 0.172254,-0.0448 0.341064,-0.13436 v 0.29972 q -0.170532,0.0724 -0.349677,0.11025 -0.179145,0.0379 -0.363458,0.0379 -0.4616424,0 -0.7320824,-0.26872 -0.2687174,-0.26871 -0.2687174,-0.72691 0,-0.4737 0.2549371,-0.75103 0.2566596,-0.27905 0.6907417,-0.27905 0.389296,0 0.614949,0.25149 0.227377,0.24977 0.227377,0.6804 z m -0.316949,-0.093 q -0.0034,-0.26011 -0.146417,-0.41514 -0.141249,-0.15503 -0.375515,-0.15503 -0.2652724,0 -0.4254693,0.14987 -0.1584744,0.14986 -0.1825901,0.42202 z"
         style="font-size:3.52777767px;stroke-width:0.26458332"
         id="path117" />
      <path
         d="m 13.277398,202.81965 h 0.292834 l -0.895725,2.89905 h -0.292833 z"
         style="font-size:3.52777767px;stroke-width:0.26458332"
         id="path119" />
      <path
         d="m 16.584689,202.90406 v 0.33934 q -0.198092,-0.0947 -0.373792,-0.14125 -0.1757,-0.0465 -0.339342,-0.0465 -0.284221,0 -0.43925,0.11025 -0.153307,0.11024 -0.153307,0.3135 0,0.17053 0.101631,0.25838 0.103353,0.0861 0.389295,0.13953 l 0.210151,0.0431 q 0.389296,0.0741 0.573609,0.26183 0.186035,0.18604 0.186035,0.49954 0,0.37379 -0.251492,0.56672 -0.24977,0.19292 -0.733805,0.19292 -0.182591,0 -0.389296,-0.0413 -0.204983,-0.0413 -0.42547,-0.1223 v -0.35829 q 0.211874,0.11886 0.415134,0.17915 0.203261,0.0603 0.399632,0.0603 0.298,0 0.45992,-0.11713 0.161919,-0.11713 0.161919,-0.33417 0,-0.18948 -0.117133,-0.29628 -0.115411,-0.1068 -0.380683,-0.1602 l -0.211873,-0.0413 q -0.389296,-0.0775 -0.563274,-0.24288 -0.173977,-0.16536 -0.173977,-0.45992 0,-0.34106 0.239434,-0.53743 0.241157,-0.19637 0.663181,-0.19637 0.180868,0 0.368625,0.0327 0.187758,0.0327 0.384128,0.0982 z"
         style="font-size:3.52777767px;stroke-width:0.26458332"
         id="path121" />
      <path
         d="m 17.793918,204.00821 q -0.156752,0.13953 -0.230821,0.27906 -0.07235,0.1378 -0.07235,0.28938 0,0.2515 0.18259,0.41858 0.18259,0.16709 0.458197,0.16709 0.163643,0 0.306614,-0.0534 0.142971,-0.0551 0.268717,-0.16536 z m 0.242879,-0.19292 0.875055,0.89572 q 0.10163,-0.1533 0.158474,-0.32728 0.05684,-0.1757 0.06718,-0.37207 h 0.320394 q -0.02067,0.22737 -0.110243,0.44958 -0.08957,0.22221 -0.249769,0.43925 l 0.480591,0.49093 h -0.434082 l -0.246325,-0.25322 q -0.179145,0.15331 -0.375515,0.2291 -0.196371,0.0741 -0.422024,0.0741 -0.415134,0 -0.678684,-0.23599 -0.26355,-0.23771 -0.26355,-0.60806 0,-0.22048 0.115411,-0.41341 0.11541,-0.19465 0.346232,-0.36518 -0.08268,-0.10852 -0.125746,-0.21532 -0.04306,-0.10852 -0.04306,-0.21187 0,-0.27905 0.191203,-0.44786 0.191203,-0.17053 0.508152,-0.17053 0.142971,0 0.28422,0.031 0.142971,0.031 0.289388,0.093 v 0.3135 q -0.149862,-0.081 -0.285943,-0.1223 -0.136081,-0.0431 -0.253215,-0.0431 -0.180867,0 -0.294555,0.0965 -0.111966,0.0947 -0.111966,0.24633 0,0.0879 0.04995,0.17742 0.05168,0.0879 0.208428,0.24977 z"
         style="font-size:3.52777767px;stroke-width:0.26458332"
         id="path123" />
      <path
         d="m 20.031507,202.81965 h 0.347955 v 1.0542 h 1.26435 v -1.0542 h 0.347954 v 2.57177 h -0.347954 v -1.22473 h -1.26435 v 1.22473 h -0.347955 z"
         style="font-size:3.52777767px;stroke-width:0.26458332"
         id="path125" />
    </g>
    <g
       aria-label="CV In"
       style="font-style:normal;font-weight:normal;font-size:2.11666656px;line-height:1.25;font-family:sans-serif;letter-spacing:0px;word-spacing:0px;fill:#000000;fill-opacity:1;stroke:none;stroke-width:0.26458332"
       id="text55">
      <path
         d="m 10.51667,221.74032 v 0.22014 q -0.10542,-0.0982 -0.225309,-0.14676 -0.118856,-0.0486 -0.253214,-0.0486 -0.2645836,0 -0.4051435,0.16227 -0.1405599,0.16123 -0.1405599,0.46715 0,0.30489 0.1405599,0.46716 0.1405599,0.16123 0.4051435,0.16123 0.134358,0 0.253214,-0.0486 0.119889,-0.0486 0.225309,-0.14676 v 0.21807 q -0.109554,0.0744 -0.232544,0.11163 -0.121956,0.0372 -0.258382,0.0372 -0.3503659,0 -0.5519039,-0.21394 -0.2015381,-0.21497 -0.2015381,-0.58601 0,-0.37207 0.2015381,-0.58601 0.201538,-0.21497 0.5519039,-0.21497 0.138493,0 0.26045,0.0372 0.122989,0.0362 0.230476,0.10956 z"
         style="font-size:2.11666656px;stroke-width:0.26458332"
         id="path128" />
      <path
         d="m 11.239107,223.16452 -0.589111,-1.54306 h 0.218074 l 0.488859,1.29915 0.489893,-1.29915 h 0.217041 l -0.588078,1.54306 z"
         style="font-size:2.11666656px;stroke-width:0.26458332"
         id="path130" />
      <path
         d="m 12.961999,221.62146 h 0.208773 v 1.54306 h -0.208773 z"
         style="font-size:2.11666656px;stroke-width:0.26458332"
         id="path132" />
      <path
         d="m 14.540197,222.46585 v 0.69867 h -0.190169 v -0.69246 q 0,-0.16433 -0.06408,-0.24598 -0.06408,-0.0816 -0.192236,-0.0816 -0.153996,0 -0.242879,0.0982 -0.08888,0.0982 -0.08888,0.26769 v 0.65422 h -0.191203 v -1.15755 h 0.191203 v 0.17983 q 0.06821,-0.10438 0.160197,-0.15606 0.09302,-0.0517 0.21394,-0.0517 0.199471,0 0.301791,0.12403 0.102319,0.12299 0.102319,0.36276 z"
         style="font-size:2.11666656px;stroke-width:0.26458332"
         id="path134" />
    </g>
    <g
       aria-label="Gate In"
       style="font-style:normal;font-weight:normal;font-size:2.11666656px;line-height:1.25;font-family:sans-serif;letter-spacing:0px;word-spacing:0px;fill:#000000;fill-opacity:1;stroke:none;stroke-width:0.26458332"
       id="text80"
       transform="translate(0,2.6458334)">
      <path
         d="m 9.340515,230.60383 v -0.41444 H 8.9994506 v -0.17157 h 0.5477701 v 0.66249 q -0.1209228,0.0858 -0.2666504,0.13023 -0.1457275,0.0434 -0.3110921,0.0434 -0.361735,0 -0.5663736,-0.21084 -0.2036052,-0.21188 -0.2036052,-0.58911 0,-0.37828 0.2036052,-0.58912 0.2046386,-0.21187 0.5663736,-0.21187 0.1508952,0 0.2862875,0.0372 0.1364257,0.0372 0.2511474,0.10955 v 0.22221 q -0.1157552,-0.0982 -0.2459798,-0.14779 -0.1302246,-0.0496 -0.2738851,-0.0496 -0.2831868,0 -0.4258138,0.15813 -0.1415934,0.15813 -0.1415934,0.47129 0,0.31212 0.1415934,0.47025 0.142627,0.15813 0.4258138,0.15813 0.1105876,0 0.197404,-0.0186 0.086816,-0.0196 0.1560628,-0.06 z"
         style="stroke-width:0.26458332"
         id="path137"
         inkscape:connector-curvature="0" />
      <path
         d="m 10.447424,230.2421 q -0.230477,0 -0.31936,0.0527 -0.08888,0.0527 -0.08888,0.17983 0,0.10129 0.06615,0.16123 0.06718,0.0589 0.181901,0.0589 0.15813,0 0.253215,-0.11162 0.09612,-0.11265 0.09612,-0.29869 v -0.0424 z m 0.379305,-0.0786 v 0.66042 H 10.63656 v -0.1757 q -0.06511,0.10542 -0.162264,0.15607 -0.09715,0.0496 -0.237712,0.0496 -0.177767,0 -0.2831865,-0.0992 -0.1043864,-0.10025 -0.1043864,-0.26769 0,-0.19533 0.1302246,-0.29455 0.1312583,-0.0992 0.3906743,-0.0992 h 0.26665 v -0.0186 q 0,-0.13126 -0.08682,-0.20258 -0.08578,-0.0723 -0.241846,-0.0723 -0.09922,0 -0.19327,0.0238 -0.09405,0.0238 -0.1808675,0.0713 v -0.1757 q 0.1043865,-0.0403 0.2025715,-0.0599 0.09819,-0.0207 0.191203,-0.0207 0.251147,0 0.375171,0.13022 0.124023,0.13023 0.124023,0.39481 z"
         style="stroke-width:0.26458332"
         id="path139"
         inkscape:connector-curvature="0" />
      <path
         d="m 11.407572,229.33776 v 0.32866 h 0.391708 v 0.1478 h -0.391708 v 0.62838 q 0,0.1416 0.03824,0.1819 0.03927,0.0403 0.15813,0.0403 h 0.195337 v 0.15916 h -0.195337 q -0.220142,0 -0.303858,-0.0816 -0.08372,-0.0827 -0.08372,-0.29973 v -0.62838 h -0.139526 v -0.1478 h 0.139526 v -0.32866 z"
         style="stroke-width:0.26458332"
         id="path141"
         inkscape:connector-curvature="0" />
      <path
         d="m 13.040547,230.19766 v 0.093 h -0.874365 q 0.0124,0.19637 0.117822,0.29973 0.106454,0.10232 0.29559,0.10232 0.109554,0 0.211873,-0.0269 0.103353,-0.0269 0.204639,-0.0806 v 0.17983 q -0.10232,0.0434 -0.209807,0.0661 -0.107487,0.0227 -0.218074,0.0227 -0.276986,0 -0.43925,-0.16123 -0.16123,-0.16123 -0.16123,-0.43615 0,-0.28422 0.152962,-0.45062 0.153996,-0.16743 0.414445,-0.16743 0.233577,0 0.36897,0.15089 0.136425,0.14986 0.136425,0.40825 z m -0.190169,-0.0558 q -0.0021,-0.15607 -0.08785,-0.24908 -0.08475,-0.093 -0.225309,-0.093 -0.159163,0 -0.255282,0.0899 -0.09508,0.0899 -0.109554,0.25322 z"
         style="stroke-width:0.26458332"
         id="path143"
         inkscape:connector-curvature="0" />
      <path
         d="m 14.034802,229.28092 h 0.208773 v 1.54305 h -0.208773 z"
         style="stroke-width:0.26458332"
         id="path145"
         inkscape:connector-curvature="0" />
      <path
         d="m 15.613,230.12531 v 0.69866 h -0.190169 v -0.69246 q 0,-0.16433 -0.06408,-0.24598 -0.06408,-0.0816 -0.192236,-0.0816 -0.153996,0 -0.242879,0.0982 -0.08888,0.0982 -0.08888,0.26768 v 0.65422 H 14.64355 v -1.15755 h 0.191203 v 0.17984 q 0.06821,-0.10439 0.160197,-0.15607 0.09302,-0.0517 0.21394,-0.0517 0.199471,0 0.301791,0.12402 0.102319,0.12299 0.102319,0.36277 z"
         style="stroke-width:0.26458332"
         id="path147"
         inkscape:connector-curvature="0" />
    </g>
    <g
       aria-label="Noise Out"
       style="font-style:normal;font-weight:normal;font-size:2.11666656px;line-height:1.25;font-family:sans-serif;letter-spacing:0px;word-spacing:0px;fill:#000000;fill-opacity:1;stroke:none;stroke-width:0.26458332"
       id="text84"
       transform="translate(0,2.6458334)">
      <path
         d="m 6.8435105,250.44751 h 0.2811198 l 0.6841959,1.29088 v -1.29088 h 0.2025716 v 1.54306 H 7.7302781 l -0.684196,-1.29088 v 1.29088 H 6.8435105 Z"
         style="stroke-width:0.26458332"
         id="path150"
         inkscape:connector-curvature="0" />
      <path
         d="m 8.8671595,250.96634 q -0.1529622,0 -0.2418457,0.11989 -0.088883,0.11886 -0.088883,0.3266 0,0.20774 0.08785,0.32763 0.088883,0.11885 0.2428792,0.11885 0.1519287,0 0.2408122,-0.11989 0.088883,-0.11989 0.088883,-0.32659 0,-0.20567 -0.088883,-0.32556 -0.088883,-0.12093 -0.2408127,-0.12093 z m 0,-0.16123 q 0.2480469,0 0.3896403,0.16123 0.1415934,0.16123 0.1415934,0.44649 0,0.28422 -0.1415934,0.44648 -0.1415934,0.16123 -0.3896403,0.16123 -0.2490804,0 -0.3906738,-0.16123 -0.1405599,-0.16226 -0.1405599,-0.44648 0,-0.28526 0.1405599,-0.44649 0.1415934,-0.16123 0.3906738,-0.16123 z"
         style="stroke-width:0.26458332"
         id="path152"
         inkscape:connector-curvature="0" />
      <path
         d="m 9.7125859,250.83302 h 0.1901693 v 1.15755 H 9.7125859 Z m 0,-0.45062 h 0.1901693 v 0.24081 H 9.7125859 Z"
         style="stroke-width:0.26458332"
         id="path154"
         inkscape:connector-curvature="0" />
      <path
         d="m 11.03757,250.86712 v 0.17984 q -0.08062,-0.0413 -0.167432,-0.062 -0.08682,-0.0207 -0.179834,-0.0207 -0.141593,0 -0.212907,0.0434 -0.07028,0.0434 -0.07028,0.13023 0,0.0661 0.05064,0.10439 0.05064,0.0372 0.203605,0.0713 l 0.06511,0.0145 q 0.202572,0.0434 0.287321,0.12299 0.08578,0.0786 0.08578,0.22014 0,0.16123 -0.128157,0.25528 -0.127124,0.0941 -0.350366,0.0941 -0.09302,0 -0.194304,-0.0186 -0.100252,-0.0176 -0.211873,-0.0537 v -0.19638 q 0.10542,0.0548 0.207739,0.0827 0.102319,0.0269 0.202572,0.0269 0.134358,0 0.206705,-0.0455 0.07235,-0.0465 0.07235,-0.13022 0,-0.0775 -0.05271,-0.11886 -0.05168,-0.0413 -0.228409,-0.0796 l -0.06615,-0.0155 q -0.176734,-0.0372 -0.255282,-0.11369 -0.07855,-0.0775 -0.07855,-0.21187 0,-0.1633 0.115755,-0.25218 0.115755,-0.0889 0.328662,-0.0889 0.10542,0 0.198438,0.0155 0.09302,0.0155 0.171566,0.0465 z"
         style="stroke-width:0.26458332"
         id="path156"
         inkscape:connector-curvature="0" />
      <path
         d="m 12.393559,251.36425 v 0.093 h -0.874365 q 0.0124,0.19637 0.117822,0.29972 0.106453,0.10232 0.295589,0.10232 0.109554,0 0.211874,-0.0269 0.103352,-0.0269 0.204638,-0.0806 v 0.17984 q -0.102319,0.0434 -0.209806,0.0661 -0.107487,0.0227 -0.218075,0.0227 -0.276985,0 -0.439249,-0.16123 -0.161231,-0.16123 -0.161231,-0.43615 0,-0.28422 0.152963,-0.45062 0.153995,-0.16743 0.414444,-0.16743 0.233578,0 0.36897,0.1509 0.136426,0.14986 0.136426,0.40824 z m -0.190169,-0.0558 q -0.0021,-0.15606 -0.08785,-0.24908 -0.08475,-0.093 -0.225309,-0.093 -0.159164,0 -0.255282,0.0899 -0.09509,0.0899 -0.109554,0.25321 z"
         style="stroke-width:0.26458332"
         id="path158"
         inkscape:connector-curvature="0" />
      <path
         d="m 14.014132,250.58911 q -0.227377,0 -0.361735,0.16949 -0.133325,0.1695 -0.133325,0.46199 0,0.29146 0.133325,0.46096 0.134358,0.16949 0.361735,0.16949 0.227376,0 0.359668,-0.16949 0.133325,-0.1695 0.133325,-0.46096 0,-0.29249 -0.133325,-0.46199 -0.132292,-0.16949 -0.359668,-0.16949 z m 0,-0.1695 q 0.324528,0 0.518831,0.21807 0.194304,0.21704 0.194304,0.58291 0,0.36484 -0.194304,0.58291 -0.194303,0.21704 -0.518831,0.21704 -0.325562,0 -0.520899,-0.21704 -0.194303,-0.21704 -0.194303,-0.58291 0,-0.36587 0.194303,-0.58291 0.195337,-0.21807 0.520899,-0.21807 z"
         style="stroke-width:0.26458332"
         id="path160"
         inkscape:connector-curvature="0" />
      <path
         d="m 15.025956,251.53375 v -0.70073 h 0.19017 v 0.6935 q 0,0.16433 0.06408,0.24701 0.06408,0.0816 0.192237,0.0816 0.153995,0 0.242879,-0.0982 0.08992,-0.0982 0.08992,-0.26768 v -0.65629 h 0.190169 v 1.15755 h -0.190169 v -0.17777 q -0.06925,0.10542 -0.161231,0.1571 -0.09095,0.0506 -0.211873,0.0506 -0.199471,0 -0.302824,-0.12402 -0.103353,-0.12402 -0.103353,-0.36277 z"
         style="stroke-width:0.26458332"
         id="path162"
         inkscape:connector-curvature="0" />
      <path
         d="m 16.577282,250.50436 v 0.32866 h 0.391708 v 0.14779 h -0.391708 v 0.62839 q 0,0.14159 0.03824,0.1819 0.03927,0.0403 0.15813,0.0403 h 0.195337 v 0.15916 h -0.195337 q -0.220142,0 -0.303858,-0.0816 -0.08372,-0.0827 -0.08372,-0.29972 v -0.62839 h -0.139527 v -0.14779 h 0.139527 v -0.32866 z"
         style="stroke-width:0.26458332"
         id="path164"
         inkscape:connector-curvature="0" />
    </g>
    <g
       aria-label="S&amp;H Out"
       style="font-style:normal;font-weight:normal;font-size:2.11666656px;line-height:1.25;font-family:sans-serif;letter-spacing:0px;word-spacing:0px;fill:#000000;fill-opacity:1;stroke:none;stroke-width:0.26458332"
       id="text88"
       transform="translate(0,5.2916669)">
      <path
         d="m 8.4454796,258.43572 v 0.2036 q -0.1188558,-0.0568 -0.2242757,-0.0847 -0.10542,-0.0279 -0.2036052,-0.0279 -0.1705322,0 -0.2635498,0.0661 -0.091984,0.0661 -0.091984,0.1881 0,0.10232 0.060978,0.15503 0.062012,0.0517 0.2335774,0.0837 l 0.1260905,0.0258 q 0.2335775,0.0444 0.344165,0.15709 0.1116211,0.11163 0.1116211,0.29973 0,0.22427 -0.1508951,0.34003 -0.1498617,0.11575 -0.4402832,0.11575 -0.1095541,0 -0.2335775,-0.0248 -0.1229899,-0.0248 -0.2552815,-0.0734 v -0.21498 q 0.127124,0.0713 0.2490803,0.10749 0.1219564,0.0362 0.2397787,0.0362 0.1788004,0 0.2759521,-0.0703 0.097152,-0.0703 0.097152,-0.2005 0,-0.11369 -0.07028,-0.17777 -0.069247,-0.0641 -0.2284099,-0.0961 l -0.127124,-0.0248 q -0.2335774,-0.0465 -0.3379638,-0.14573 -0.1043864,-0.0992 -0.1043864,-0.27595 0,-0.20464 0.1436605,-0.32246 0.144694,-0.11782 0.3979085,-0.11782 0.1085205,0 0.2211751,0.0196 0.1126546,0.0196 0.2304769,0.0589 z"
         style="stroke-width:0.26458332"
         id="path167"
         inkscape:connector-curvature="0" />
      <path
         d="m 9.1710166,259.09821 q -0.094051,0.0837 -0.1384928,0.16743 -0.043408,0.0827 -0.043408,0.17363 0,0.1509 0.109554,0.25115 0.109554,0.10025 0.2749186,0.10025 0.098185,0 0.1839681,-0.032 0.085783,-0.0331 0.1612305,-0.0992 z m 0.1457275,-0.11576 0.5250326,0.53744 q 0.060978,-0.092 0.095085,-0.19637 0.034106,-0.10542 0.040308,-0.22325 h 0.1922363 q -0.0124,0.13643 -0.06615,0.26976 -0.05374,0.13332 -0.1498614,0.26355 l 0.2883544,0.29455 H 9.981303 L 9.8335084,259.7762 q -0.1074869,0.092 -0.2253092,0.13746 -0.1178222,0.0444 -0.2532145,0.0444 -0.2490804,0 -0.4072103,-0.14159 -0.1581298,-0.14263 -0.1581298,-0.36484 0,-0.13229 0.069246,-0.24804 0.069246,-0.11679 0.2077392,-0.21911 -0.049609,-0.0651 -0.075448,-0.12919 -0.025838,-0.0651 -0.025838,-0.12713 0,-0.16743 0.1147217,-0.26871 0.1147217,-0.10232 0.3048909,-0.10232 0.085783,0 0.1705323,0.0186 0.085783,0.0186 0.1736328,0.0558 v 0.1881 q -0.089917,-0.0486 -0.1715658,-0.0734 -0.081649,-0.0258 -0.1519287,-0.0258 -0.1085205,0 -0.1767334,0.0579 -0.067179,0.0568 -0.067179,0.1478 0,0.0527 0.029972,0.10645 0.031006,0.0527 0.1250569,0.14986 z"
         style="stroke-width:0.26458332"
         id="path169"
         inkscape:connector-curvature="0" />
      <path
         d="m 10.51357,258.38507 h 0.208773 v 0.63252 h 0.75861 v -0.63252 h 0.208773 v 1.54306 h -0.208773 v -0.73484 h -0.75861 v 0.73484 H 10.51357 Z"
         style="stroke-width:0.26458332"
         id="path171"
         inkscape:connector-curvature="0" />
      <path
         d="m 13.405383,258.52667 q -0.227376,0 -0.361735,0.1695 -0.133325,0.16949 -0.133325,0.46198 0,0.29146 0.133325,0.46096 0.134359,0.16949 0.361735,0.16949 0.227377,0 0.359668,-0.16949 0.133325,-0.1695 0.133325,-0.46096 0,-0.29249 -0.133325,-0.46198 -0.132291,-0.1695 -0.359668,-0.1695 z m 0,-0.1695 q 0.324528,0 0.518832,0.21807 0.194303,0.21704 0.194303,0.58291 0,0.36484 -0.194303,0.58291 -0.194304,0.21704 -0.518832,0.21704 -0.325561,0 -0.520898,-0.21704 -0.194303,-0.21704 -0.194303,-0.58291 0,-0.36587 0.194303,-0.58291 0.195337,-0.21807 0.520898,-0.21807 z"
         style="stroke-width:0.26458332"
         id="path173"
         inkscape:connector-curvature="0" />
      <path
         d="m 14.417208,259.47131 v -0.70073 h 0.190169 v 0.6935 q 0,0.16433 0.06408,0.24701 0.06408,0.0816 0.192236,0.0816 0.153996,0 0.242879,-0.0982 0.08992,-0.0982 0.08992,-0.26768 v -0.65629 h 0.19017 v 1.15755 h -0.19017 v -0.17777 q -0.06925,0.10542 -0.16123,0.1571 -0.09095,0.0506 -0.211873,0.0506 -0.199471,0 -0.302824,-0.12402 -0.103353,-0.12402 -0.103353,-0.36277 z"
         style="stroke-width:0.26458332"
         id="path175"
         inkscape:connector-curvature="0" />
      <path
         d="m 15.968534,258.44192 v 0.32866 h 0.391707 v 0.14779 h -0.391707 v 0.62839 q 0,0.14159 0.03824,0.1819 0.03927,0.0403 0.158129,0.0403 h 0.195337 v 0.15916 h -0.195337 q -0.220141,0 -0.303857,-0.0817 -0.08372,-0.0827 -0.08372,-0.29972 v -0.62839 H 15.6378 v -0.14779 h 0.139526 v -0.32866 z"
         style="stroke-width:0.26458332"
         id="path177"
         inkscape:connector-curvature="0" />
    </g>
  </g>
</svg>
